<svg width="40" height="40" viewBox="0 0 40 40" fill="none" xmlns="http://www.w3.org/2000/svg">
<circle cx="20" cy="20" r="20" fill="#333333"/>
<path d="M14 20C14 20.075 14.0166 20.1499 14.0497 20.2192L19.5451 31.7125C19.5948 31.8164 19.6782 31.9001 19.7816 31.95C20.0329 32.0711 20.3343 31.9647 20.4549 31.7125L25.9503 20.2192C25.9834 20.1499 26 20.075 26 20H22C22 21.1046 21.1046 22 20 22C18.8954 22 18 21.1046 18 20H14Z" fill="#CCCCCC"/>
<path d="M14 20C14 19.925 14.0166 19.8501 14.0497 19.7808L19.5451 8.28747C19.5948 8.18362 19.6782 8.09985 19.7816 8.05C20.0329 7.92894 20.3343 8.03526 20.4549 8.28747L25.9503 19.7808C25.9834 19.8501 26 19.925 26 20H22C22 18.8954 21.1046 18 20 18C18.8954 18 18 18.8954 18 20H14Z" fill="#FF5B4D"/>
</svg>
